# xmcd CD database file
#
# Track frame offsets:
#	150
#	16800
#	31038
#	33553
#	49694
#	67253
#	84108
#	99897
#	114602
#	129800
#	131681
#	148453
#	169566
#	189226
#	190188
#	204848
#	221767
#	240657
#	256022
#	272443
#	288492
#	303404
#	319724
#	337511
#	347977
#
# Disc length: 4803 seconds
#
# Revision: 4
# Processed by: cddbd v1.5.2PL0 Copyright (c) Steve Scherf et al.
# Submitted via: CDex 1.51
#
DISCID=5812c119
DTITLE=REDNEX - REDNEX (¹ 217)
DYEAR=1996
DGENRE=Country
TTITLE0=REDNEX - the way i mate
TTITLE1=REDNEX - cotton-eye joe
TTITLE2=REDNEX - fresh pigs and more
TTITLE3=REDNEX - the devil went down to georgia
TTITLE4=REDNEX - wish you were here
TTITLE5=REDNEX - the spirit of the hawk
TTITLE6=REDNEX - old pop in an oak
TTITLE7=REDNEX - hittin' the hay
TTITLE8=REDNEX - where you gonna go
TTITLE9=REDNEX - boring...
TTITLE10=REDNEX - shooter
TTITLE11=REDNEX - hold me for the a while
TTITLE12=REDNEX - maggie moonshine
TTITLE13=REDNEX - animal in the rain
TTITLE14=REDNEX - fat sally lee
TTITLE15=REDNEX - get the thuck  loaded
TTITLE16=REDNEX - rolling home
TTITLE17=REDNEX - hiding home
TTITLE18=REDNEX - bottleneck bob 2000
TTITLE19=REDNEX - mary lou
TTITLE20=REDNEX - is he alive
TTITLE21=REDNEX - wild and free
TTITLE22=REDNEX - nowhere in idano
TTITLE23=REDNEX - the sad but true story of ray minges
TTITLE24=REDNEX - mickenzie brothers II(contininued)...
EXTD=YEAR: 1996
EXTT0=
EXTT1=
EXTT2=
EXTT3=
EXTT4=
EXTT5=
EXTT6=
EXTT7=
EXTT8=
EXTT9=
EXTT10=
EXTT11=
EXTT12=
EXTT13=
EXTT14=
EXTT15=
EXTT16=
EXTT17=
EXTT18=
EXTT19=
EXTT20=
EXTT21=
EXTT22=
EXTT23=
EXTT24=
PLAYORDER=
